# xmcd
#
# Track frame offsets: 
#        150
#        10862
#        27999
#        48557
#        68264
#        89501
#        117136
#        133548
#        159364
#        179451
#        207722
#        226865
#        243612
#        268023
#        277047
#        296672
#
# Disc length: 4103 seconds
#
# Revision: 0
# Processed by: cddbd v1.5.2PL0 Copyright (c) Steve Scherf et al.
# Submitted via: ExactAudioCopyFreeDBPlugin 1.0 GR/25.07.2011
#
DISCID=e6100510
DTITLE=Thierry van Werveke - dat Bescht
DYEAR=2009
DGENRE=Rock
TTITLE0=Halwerzing Moien
TTITLE1=Ballad vum wëlle Menn
TTITLE2=Dog and Frog Blues
TTITLE3=War
TTITLE4=Cha Cha Che
TTITLE5=Red Eyes
TTITLE6=Goin´ Away
TTITLE7=The troublemaker
TTITLE8=All Night Long
TTITLE9=All Here Now
TTITLE10=Tango crime in elle
TTITLE11=Susan
TTITLE12=Against the Law
TTITLE13=Two Seconds
TTITLE14=2 Pond de Kilo
TTITLE15=No Luck
EXTD=
EXTT0=
EXTT1=
EXTT2=
EXTT3=
EXTT4=
EXTT5=
EXTT6=
EXTT7=
EXTT8=
EXTT9=
EXTT10=
EXTT11=
EXTT12=
EXTT13=
EXTT14=
EXTT15=
PLAYORDER=
